<?xml version="1.0" encoding="utf-8"?>
<!-- Generator: Adobe Illustrator 20.1.0, SVG Export Plug-In . SVG Version: 6.00 Build 0)  -->
<svg version="1.1" id="Calque_1" xmlns="http://www.w3.org/2000/svg" xmlns:xlink="http://www.w3.org/1999/xlink" x="0px" y="0px"
	 viewBox="0 0 510.2 139.1" style="enable-background:new 0 0 510.2 139.1;" xml:space="preserve">
<style type="text/css">
	.st0{fill:#8A8B87;}
	.st1{fill:#009BCA;}
	.st2{fill:#FFFFFF;}
	.st3{fill:#81C5E2;}
</style>
<polygon class="st0" points="431.4,19 431.4,72.7 431.1,72.7 397.8,19 385.9,19 385.9,85.2 395.5,85.2 395.5,35.1 395.7,35.1 
	427.3,85.2 441,85.2 441,19 "/>
<rect x="352.8" y="19" class="st0" width="10.4" height="66.3"/>
<g>
	<path class="st0" d="M309.9,57.5c10,3.6,14.6,7.2,14.6,13.3c0,6.9-6.6,11.3-15.9,11.3c-5.8,0-12.2-1.7-17.1-4.5l-0.7-0.4l-2.6,8.1
		h39.4c5.3-4.1,7.5-9.9,7.5-15.2c0-10-5.7-16.1-19.7-21.1c-11-3.9-15.2-7.1-15.2-12.8c0-4.9,4.9-9.8,14.2-9.8c6.3,0,11.1,1.8,14,3.2
		l0.7,0.3l3.1-8.6l-0.5-0.3c-2.5-1.3-8-3.5-17-3.5c-14.7,0-25,8.1-25,19.6C289.5,46.5,296,53,309.9,57.5"/>
	<path class="st0" d="M250.1,57.5c10,3.6,14.6,7.2,14.6,13.3c0,6.9-6.6,11.3-15.9,11.3c-5.8,0-12.2-1.7-17.1-4.5l-0.7-0.4l-2.6,8.1
		h39.4c5.3-4.1,7.5-9.9,7.5-15.2c0-10-5.7-16.1-19.7-21.1c-11-3.9-15.2-7.1-15.2-12.8c0-4.9,4.9-9.8,14.2-9.8c6.3,0,11.1,1.8,14,3.2
		l0.7,0.3l3.1-8.6l-0.5-0.3c-2.5-1.3-8-3.5-17-3.5c-14.7,0-25,8.1-25,19.6C229.7,46.5,236.2,53,250.1,57.5"/>
	<path class="st0" d="M167.1,85.2l5.2-14.4h29.6l5.2,14.4h11.2L193.7,19h-12.7l-24.5,66.3H167.1z M186.9,29.4h0.4l11.7,33h-24
		L186.9,29.4z"/>
	<path class="st0" d="M138.9,85.2c0.6-0.4,1.3-0.9,1.8-1.4c3.8-3.5,5.4-8.5,5.4-13.5c0-9.5-4.7-14.4-12.1-16.9v-0.3
		c6.5-3.4,9.3-8.6,9.3-15.6c0-5.7-1.7-10.7-5.9-13.8c-5.2-4.3-11.8-4.8-21.7-4.8h-21v66.3H138.9z M135.6,69.7
		c0,8.1-4.6,11.6-17,11.6h-13.5V58.4h13.4C130.5,58.4,135.6,61.4,135.6,69.7 M105,27.1h11.2c11.6,0,16.8,3.1,16.8,11.6
		c0,7.5-4.5,11.6-16.2,11.6H105V27.1z"/>
	<path class="st1" d="M119.1,128.5c-3.4,2.7-7.8,3.6-12.6,3.6H94.8V96.7h11.8c4.8,0,9.1,0.8,12.5,3.5c3.6,3,5.3,8,5.3,14.1
		C124.4,120.5,122.8,125.6,119.1,128.5 M106.6,102.5h-4.7v23.9h4.6c7.2,0,10.6-3.8,10.6-11.9C117.1,106.6,113.4,102.5,106.6,102.5"
		/>
	<path class="st1" d="M129.8,110.4c2-5.4,3.5-10.2,4.7-15.4h7c-1.6,5.5-3.7,10.8-5.7,15.4H129.8z"/>
	<path class="st1" d="M167.7,132.1l-2.8-8.2h-14l-2.8,8.2h-7.4l13-35.3h8.9l13,35.3H167.7z M158,103.4h-0.2l-5.1,14.9h10.4
		L158,103.4z"/>
	<path class="st1" d="M203.4,132.1l-7.3-12.8c-0.5,0.1-0.9,0.1-1.4,0.1h-3.9v12.8h-7.1V96.7h12.4c4.8,0,8.7,0.5,11.4,2.9
		c2.2,2,3,4.8,3,8.3c0,3.3-0.9,6.3-3.1,8.3c-1,1-2.3,1.7-3.8,2.1l8.2,13.8H203.4z M195.7,102.3h-5V114h5c5.4,0,7.4-1.9,7.4-5.8
		C203.2,103.7,200.5,102.3,195.7,102.3"/>
	<path class="st1" d="M278,132.1l-2.8-8.2h-14l-2.8,8.2H251l13-35.3h8.9l12.9,35.3H278z M268.3,103.4h-0.2l-5.1,14.9h10.4
		L268.3,103.4z"/>
	<polygon class="st1" points="350.3,132.1 350.3,116.9 335.2,116.9 335.2,132.1 328.1,132.1 328.1,96.7 335.2,96.7 335.2,111 
		350.3,111 350.3,96.7 357.4,96.7 357.4,132.1 	"/>
	<path class="st1" d="M396.7,99.7c3.6,3,5.2,8.3,5.2,14.6c0,6.4-1.6,11.7-5.2,14.8c-3.3,2.8-7.6,3.7-12.2,3.7
		c-4.6,0-8.8-0.9-12.1-3.7c-3.6-3-5.3-8.3-5.3-14.7c0-6.4,1.6-11.7,5.2-14.7c3.4-2.8,7.5-3.7,12.2-3.7
		C389.2,96,393.4,96.9,396.7,99.7 M394.7,114.6c0-8.3-3-12.7-10.1-12.7c-7.2,0-10.1,3.9-10.1,12.3c0,8.3,3.1,12.7,10.1,12.7
		C391.8,126.9,394.7,123.1,394.7,114.6"/>
	<polygon class="st1" points="433.3,132.1 418.3,107.6 418.2,107.6 418.2,132.1 411.7,132.1 411.7,96.7 419.9,96.7 434.3,120.9 
		434.5,120.9 434.5,96.7 441,96.7 441,132.1 	"/>
	<path class="st1" d="M298.1,114.4L298.1,114.4L298.1,114.4c0-7.5,3-12.4,9.7-12.4c2.7,0,5.8,0.7,8.6,1.5v-5.8
		c-3.6-0.9-7.2-1.7-10.6-1.7c-3.7,0-7.5,1.1-10.4,4c-3.3,3.4-4.6,8.4-4.6,14.4c0,6,1.3,11,4.6,14.4c2.8,2.9,6.7,4,10.4,4
		c3.9,0,8.1-1,12.2-2.1v-5.8c-3.1,0.9-7.1,1.9-10.3,1.9C301.1,126.8,298.1,121.9,298.1,114.4"/>
	<path class="st1" d="M226.1,114.4L226.1,114.4L226.1,114.4c0-7.5,3-12.4,9.7-12.4c2.7,0,5.8,0.7,8.6,1.5v-5.8
		c-3.6-0.9-7.2-1.7-10.6-1.7c-3.7,0-7.5,1.1-10.4,4c-3.3,3.4-4.6,8.4-4.6,14.4c0,6,1.3,11,4.6,14.4c2.8,2.9,6.7,4,10.4,4
		c3.9,0,8.2-1,12.2-2.1v-5.8c-3.1,0.9-7.1,1.9-10.3,1.9C229,126.8,226.1,121.9,226.1,114.4"/>
	<polygon class="st0" points="0,20.8 0,85.2 7.8,85.2 7.8,18.4 	"/>
	<polygon class="st0" points="25.9,12.9 25.9,85.3 35.3,85.3 35.3,10 	"/>
	<polygon class="st1" points="6.9,129.2 7.8,96.7 0,96.7 0.9,128.2 	"/>
	<polygon class="st1" points="34.2,133.8 35.3,96.7 25.9,96.7 26.9,132.6 	"/>
	<polygon class="st0" points="66.9,0 56.2,3.3 56.2,85.2 66.9,85.2 	"/>
	<polygon class="st1" points="57.5,137.8 65.5,139.1 66.9,96.7 56.2,96.7 57.5,137.8 	"/>
	<path class="st1" d="M483.8,34.2h-3.1v5.9h3.2c3.2,0,4.4-0.9,4.4-3C488.3,35,487,34.2,483.8,34.2"/>
	<path class="st1" d="M487.6,28.7c0-2.2-1.4-3-4.4-3h-2.5v6h2.7C486.4,31.8,487.6,30.7,487.6,28.7"/>
	<polygon class="st1" points="502.9,27.5 500,35.7 505.8,35.7 503,27.5 	"/>
	<path class="st1" d="M504.9,24.5l4.9,13.3c0.3-1.5,0.5-3.1,0.5-4.8c0-13.9-11.2-25.1-25.1-25.1c-13.9,0-25.1,11.2-25.1,25.1
		c0,5.5,1.8,10.7,4.8,14.8v-7.6l2.3,0l0,10.3c1.1,1.1,2.2,2.1,3.5,3V40.2h2.9v15.1c3.5,1.8,7.4,2.8,11.5,2.8
		c10.4,0,19.3-6.3,23.1-15.4h0l-1.6-4.6h-7.5l-1.6,4.6h-3.2l6.7-18.2H504.9z M467.2,37.9l-2.3,0V21.4c0.7-0.7,1.5-1.4,2.3-2V37.9z
		 M473.6,37.9h-2.9V17.4c0.7-0.3,2.1-0.8,2.9-1.1V37.9z M490,41.2c-1.5,1.2-3.6,1.5-6.6,1.5h-6V23.2h5.7c2.8,0,4.6,0.1,6.1,1.3
		c1.1,0.9,1.7,2.2,1.7,3.8c0,1.9-0.8,3.4-2.6,4.3v0.1c2,0.7,3.4,2,3.4,4.7C491.6,38.8,491.2,40.2,490,41.2 M495.4,29.3h-1.8
		c0.7-2.7,1.3-5.2,2-8h3.3C497.9,24.5,497.1,26.7,495.4,29.3"/>
	<path class="st2" d="M488.3,32.8L488.3,32.8c1.8-1.1,2.6-2.5,2.6-4.4c0-1.6-0.5-3-1.7-3.8c-1.5-1.2-3.3-1.3-6.1-1.3h-5.7v19.5h6
		c3,0,5.2-0.3,6.6-1.5c1.1-1,1.6-2.4,1.6-3.8C491.6,34.8,490.3,33.5,488.3,32.8 M480.7,25.8h2.5c3,0,4.4,0.8,4.4,3c0,2-1.2,3-4.2,3
		h-2.7V25.8z M483.9,40.2h-3.2v-5.9h3.1c3.1,0,4.4,0.8,4.4,2.9C488.3,39.3,487.1,40.2,483.9,40.2"/>
	<path class="st2" d="M501.1,24.5l-6.7,18.2h3.2l1.6-4.6h7.5l1.6,4.6h0c0.7-1.6,1.2-3.2,1.5-4.9l-4.9-13.3H501.1z M500,35.7l2.9-8.2
		h0.1l2.9,8.2H500z"/>
	<path class="st2" d="M498.8,21.3h-3.3c-0.7,2.7-1.2,5.2-2,8h1.8C497.1,26.7,497.9,24.5,498.8,21.3"/>
	<path class="st2" d="M470.7,37.9h2.9V16.3c-0.8,0.2-2.2,0.7-2.9,1.1V37.9z"/>
	<path class="st2" d="M467.2,19.5c-0.8,0.6-1.6,1.3-2.3,2v16.5l2.3,0V19.5z"/>
	<path class="st3" d="M464.9,47.8c0.7,1,1.5,1.9,2.3,2.7l0-10.3l-2.3,0V47.8z"/>
	<path class="st3" d="M473.6,55.3V40.2h-2.9v13.3C471.6,54.2,472.6,54.8,473.6,55.3"/>
</g>
</svg>
